<svg width="340" height="145" viewBox="0 0 340 145" fill="none" xmlns="http://www.w3.org/2000/svg">
<rect width="340" height="145" fill="white"/>
<rect x="17" y="15" width="120" height="120" rx="12" fill="#FB5454"/>
<path d="M30.9628 68.5417H16V81.7116H30.9628C65.7853 120.137 93.0811 99.2613 108 75.9976C80.1514 29.4703 44.4142 48.1414 30.9628 68.5417Z" fill="white"/>
<path d="M177.844 69.7046H193.972V75H169.604V71.1328L185.424 48.3472H169.626V43.0078H193.62V46.7871L177.844 69.7046ZM196.257 62.8931C196.257 60.5347 196.711 58.4326 197.619 56.5869C198.527 54.7412 199.831 53.313 201.53 52.3022C203.244 51.2915 205.229 50.7861 207.485 50.7861C210.693 50.7861 213.308 51.7676 215.329 53.7305C217.365 55.6934 218.5 58.3594 218.735 61.7285L218.779 63.3545C218.779 67.002 217.761 69.9316 215.725 72.1436C213.688 74.3408 210.957 75.4395 207.529 75.4395C204.101 75.4395 201.362 74.3408 199.311 72.1436C197.275 69.9463 196.257 66.958 196.257 63.1787V62.8931ZM202.607 63.3545C202.607 65.6104 203.032 67.3389 203.881 68.54C204.731 69.7266 205.947 70.3198 207.529 70.3198C209.067 70.3198 210.268 69.7339 211.132 68.562C211.997 67.3755 212.429 65.4858 212.429 62.8931C212.429 60.6812 211.997 58.9673 211.132 57.7515C210.268 56.5356 209.052 55.9277 207.485 55.9277C205.932 55.9277 204.731 56.5356 203.881 57.7515C203.032 58.9526 202.607 60.8203 202.607 63.3545ZM228.645 51.2256L228.842 53.8843C230.527 51.8188 232.805 50.7861 235.676 50.7861C238.737 50.7861 240.839 51.9946 241.982 54.4116C243.652 51.9946 246.032 50.7861 249.123 50.7861C251.701 50.7861 253.62 51.5405 254.88 53.0493C256.14 54.5435 256.77 56.7993 256.77 59.8169V75H250.397V59.8389C250.397 58.4912 250.134 57.5098 249.606 56.8945C249.079 56.2646 248.149 55.9497 246.816 55.9497C244.912 55.9497 243.593 56.8579 242.861 58.6743L242.883 75H236.533V59.8608C236.533 58.4839 236.262 57.4878 235.72 56.8726C235.178 56.2573 234.255 55.9497 232.951 55.9497C231.149 55.9497 229.846 56.6968 229.04 58.1909V75H222.69V51.2256H228.645ZM275.446 75C275.153 74.4287 274.941 73.7183 274.809 72.8687C273.271 74.5825 271.271 75.4395 268.811 75.4395C266.481 75.4395 264.548 74.7656 263.01 73.418C261.486 72.0703 260.725 70.3711 260.725 68.3203C260.725 65.8008 261.655 63.8672 263.515 62.5195C265.39 61.1719 268.093 60.4907 271.623 60.4761H274.545V59.1138C274.545 58.0151 274.26 57.1362 273.688 56.4771C273.132 55.8179 272.246 55.4883 271.03 55.4883C269.96 55.4883 269.118 55.7446 268.503 56.2573C267.902 56.77 267.602 57.4731 267.602 58.3667H261.252C261.252 56.9897 261.677 55.7153 262.526 54.5435C263.376 53.3716 264.577 52.4561 266.13 51.7969C267.683 51.123 269.426 50.7861 271.359 50.7861C274.289 50.7861 276.611 51.5259 278.325 53.0054C280.053 54.4702 280.917 56.5356 280.917 59.2017V69.5068C280.932 71.7627 281.247 73.4692 281.862 74.6265V75H275.446ZM270.195 70.5835C271.132 70.5835 271.997 70.3784 272.788 69.9683C273.579 69.5435 274.165 68.9795 274.545 68.2764V64.1895H272.172C268.994 64.1895 267.302 65.2881 267.097 67.4854L267.075 67.8589C267.075 68.6499 267.353 69.3018 267.91 69.8145C268.466 70.3271 269.228 70.5835 270.195 70.5835ZM293.398 45.3809V51.2256H297.463V55.8838H293.398V67.749C293.398 68.6279 293.566 69.2578 293.903 69.6387C294.24 70.0195 294.885 70.21 295.837 70.21C296.54 70.21 297.163 70.1587 297.705 70.0562V74.8682C296.459 75.249 295.178 75.4395 293.859 75.4395C289.406 75.4395 287.136 73.1909 287.048 68.6938V55.8838H283.576V51.2256H287.048V45.3809H293.398ZM299.353 62.8931C299.353 60.5347 299.807 58.4326 300.715 56.5869C301.623 54.7412 302.927 53.313 304.626 52.3022C306.34 51.2915 308.325 50.7861 310.581 50.7861C313.789 50.7861 316.403 51.7676 318.425 53.7305C320.461 55.6934 321.596 58.3594 321.831 61.7285L321.875 63.3545C321.875 67.002 320.856 69.9316 318.82 72.1436C316.784 74.3408 314.052 75.4395 310.625 75.4395C307.197 75.4395 304.458 74.3408 302.407 72.1436C300.371 69.9463 299.353 66.958 299.353 63.1787V62.8931ZM305.703 63.3545C305.703 65.6104 306.127 67.3389 306.977 68.54C307.827 69.7266 309.042 70.3198 310.625 70.3198C312.163 70.3198 313.364 69.7339 314.228 68.562C315.092 67.3755 315.524 65.4858 315.524 62.8931C315.524 60.6812 315.092 58.9673 314.228 57.7515C313.364 56.5356 312.148 55.9277 310.581 55.9277C309.028 55.9277 307.827 56.5356 306.977 57.7515C306.127 58.9526 305.703 60.8203 305.703 63.3545Z" fill="black"/>
<line x1="158" y1="87" x2="334" y2="87" stroke="black" stroke-width="4"/>
<path d="M164.179 109.823H161.173V115H159.477V102.203H163.713C165.154 102.203 166.262 102.531 167.035 103.188C167.814 103.844 168.204 104.799 168.204 106.053C168.204 106.85 167.987 107.544 167.554 108.136C167.126 108.728 166.528 109.17 165.761 109.463L168.767 114.895V115H166.956L164.179 109.823ZM161.173 108.443H163.766C164.604 108.443 165.269 108.227 165.761 107.793C166.259 107.359 166.508 106.779 166.508 106.053C166.508 105.262 166.271 104.655 165.796 104.233C165.327 103.812 164.647 103.598 163.757 103.592H161.173V108.443ZM177.811 109.085H172.265V113.62H178.707V115H170.577V102.203H178.619V103.592H172.265V107.705H177.811V109.085ZM184.578 109.296C183.131 108.88 182.076 108.37 181.414 107.767C180.758 107.157 180.43 106.407 180.43 105.517C180.43 104.509 180.831 103.677 181.634 103.021C182.442 102.358 183.491 102.027 184.78 102.027C185.659 102.027 186.441 102.197 187.127 102.537C187.818 102.877 188.352 103.346 188.727 103.943C189.107 104.541 189.298 105.194 189.298 105.903H187.602C187.602 105.13 187.355 104.523 186.863 104.084C186.371 103.639 185.677 103.416 184.78 103.416C183.948 103.416 183.298 103.601 182.829 103.97C182.366 104.333 182.135 104.84 182.135 105.49C182.135 106.012 182.354 106.454 182.794 106.817C183.239 107.175 183.992 107.503 185.053 107.802C186.119 108.101 186.951 108.432 187.549 108.795C188.152 109.152 188.598 109.571 188.885 110.052C189.178 110.532 189.324 111.098 189.324 111.748C189.324 112.785 188.92 113.617 188.111 114.244C187.303 114.865 186.222 115.176 184.868 115.176C183.989 115.176 183.169 115.009 182.407 114.675C181.646 114.335 181.057 113.872 180.641 113.286C180.23 112.7 180.025 112.035 180.025 111.291H181.722C181.722 112.064 182.006 112.677 182.574 113.128C183.148 113.573 183.913 113.796 184.868 113.796C185.759 113.796 186.441 113.614 186.916 113.251C187.391 112.888 187.628 112.393 187.628 111.766C187.628 111.139 187.408 110.655 186.969 110.315C186.529 109.97 185.732 109.63 184.578 109.296ZM200.337 103.592H196.224V115H194.545V103.592H190.44V102.203H200.337V103.592ZM208.599 111.66H203.237L202.033 115H200.293L205.18 102.203H206.656L211.552 115H209.82L208.599 111.66ZM203.747 110.271H208.098L205.918 104.286L203.747 110.271ZM222.125 102.203V110.904C222.119 112.111 221.738 113.099 220.982 113.866C220.232 114.634 219.213 115.064 217.924 115.158L217.476 115.176C216.075 115.176 214.959 114.798 214.127 114.042C213.295 113.286 212.873 112.246 212.861 110.922V102.203H214.531V110.869C214.531 111.795 214.786 112.516 215.296 113.031C215.806 113.541 216.532 113.796 217.476 113.796C218.431 113.796 219.16 113.541 219.664 113.031C220.174 112.521 220.429 111.804 220.429 110.878V102.203H222.125ZM229.481 109.823H226.476V115H224.779V102.203H229.016C230.457 102.203 231.564 102.531 232.338 103.188C233.117 103.844 233.507 104.799 233.507 106.053C233.507 106.85 233.29 107.544 232.856 108.136C232.429 108.728 231.831 109.17 231.063 109.463L234.069 114.895V115H232.259L229.481 109.823ZM226.476 108.443H229.068C229.906 108.443 230.571 108.227 231.063 107.793C231.562 107.359 231.811 106.779 231.811 106.053C231.811 105.262 231.573 104.655 231.099 104.233C230.63 103.812 229.95 103.598 229.06 103.592H226.476V108.443ZM242.946 111.66H237.585L236.381 115H234.641L239.527 102.203H241.004L245.899 115H244.168L242.946 111.66ZM238.095 110.271H242.445L240.266 104.286L238.095 110.271ZM257.457 115H255.761L249.318 105.139V115H247.622V102.203H249.318L255.778 112.108V102.203H257.457V115ZM269.032 103.592H264.919V115H263.24V103.592H259.136V102.203H269.032V103.592ZM282.102 109.349H276.731V115H275.044V102.203H282.972V103.592H276.731V107.969H282.102V109.349ZM286.804 115H285.116V102.203H286.804V115ZM299.732 115H298.036L291.594 105.139V115H289.897V102.203H291.594L298.054 112.108V102.203H299.732V115ZM302.729 115V102.203H306.342C307.455 102.203 308.439 102.449 309.295 102.941C310.15 103.434 310.81 104.134 311.272 105.042C311.741 105.95 311.979 106.993 311.984 108.171V108.988C311.984 110.195 311.75 111.253 311.281 112.161C310.818 113.069 310.153 113.767 309.286 114.253C308.425 114.739 307.42 114.988 306.271 115H302.729ZM304.417 103.592V113.62H306.192C307.493 113.62 308.504 113.216 309.225 112.407C309.951 111.599 310.314 110.447 310.314 108.953V108.206C310.314 106.753 309.972 105.625 309.286 104.822C308.606 104.014 307.64 103.604 306.386 103.592H304.417ZM321.775 109.085H316.229V113.62H322.672V115H314.542V102.203H322.584V103.592H316.229V107.705H321.775V109.085ZM329.466 109.823H326.46V115H324.764V102.203H329C330.441 102.203 331.549 102.531 332.322 103.188C333.102 103.844 333.491 104.799 333.491 106.053C333.491 106.85 333.274 107.544 332.841 108.136C332.413 108.728 331.815 109.17 331.048 109.463L334.054 114.895V115H332.243L329.466 109.823ZM326.46 108.443H329.053C329.891 108.443 330.556 108.227 331.048 107.793C331.546 107.359 331.795 106.779 331.795 106.053C331.795 105.262 331.558 104.655 331.083 104.233C330.614 103.812 329.935 103.598 329.044 103.592H326.46V108.443Z" fill="black"/>
</svg>
